<?xml version="1.0" encoding="utf-8"?>
<!-- Generator: Adobe Illustrator 17.0.0, SVG Export Plug-In . SVG Version: 6.00 Build 0)  -->
<!DOCTYPE svg PUBLIC "-//W3C//DTD SVG 1.1//EN" "http://www.w3.org/Graphics/SVG/1.1/DTD/svg11.dtd">
<svg version="1.1" id="Layer_1" xmlns="http://www.w3.org/2000/svg" xmlns:xlink="http://www.w3.org/1999/xlink" x="0px" y="0px"
	 width="60px" height="60px" viewBox="0 0 60 60" enable-background="new 0 0 60 60" xml:space="preserve">
<path fill="#E0E0E0" d="M30,58.39L5,43.869V14.84L30,0.319L55,14.84v29.029L30,58.39z M7,42.719l23,13.358l23-13.358V15.991
	L30,2.632L7,15.991V42.719z"/>
<g>
	<path fill="#E0E0E0" d="M20.746,17.915c2.162,0,3.051,0.903,3.166,0.903c0.089,0,0.254-0.191,0.356-0.191
		c0.127,0,0.19,0.114,0.19,0.254c0.026,0.839,0.178,1.615,0.178,1.767c0,0.203-0.102,0.216-0.153,0.216
		c-0.077,0-0.178-0.063-0.216-0.153c-0.585-1.284-2.162-2.301-3.636-2.301c-2.034,0-3.661,1.335-3.661,3.763
		c0,2.301,1.386,4.577,3.776,4.577c1.322,0,2.543-0.699,2.657-1.462c0.013-0.102,0.038-1.08,0.038-1.602
		c0-0.369-0.089-0.585-0.216-0.712c-0.153-0.153-0.369-0.178-0.559-0.203c-0.254-0.026-0.47-0.026-0.47-0.28
		c0-0.076,0.051-0.139,0.229-0.139c0.318,0,1.094,0.063,1.411,0.063c0.585,0,1.17-0.013,1.208-0.013
		c0.051,0,0.203,0.013,0.203,0.115c0,0.203-0.623,0.203-0.687,0.584c-0.063,0.394-0.089,0.878-0.089,1.424
		c0,1.131,0.063,1.284,0.063,1.424c0,0.153-0.356,0.102-0.801,0.343c-0.153,0.089-1.462,0.979-2.873,0.979
		c-3.84,0-5.085-2.225-5.085-4.398C15.775,20.165,17.491,17.915,20.746,17.915z"/>
</g>
<g>
	<path fill="#E0E0E0" d="M38.954,34.372c0.038-0.279,0.013-0.445,0.394-0.445c0.89,0,0.775,0.102,3.585,0.102
		c1.882,0,3.242-0.025,3.916-0.063c0.025,0,0.063-0.013,0.089-0.013c0.217,0,0.242,0.178,0.242,0.216
		c0,0.153,0.077,0.929,0.077,1.03c0,0.444-0.038,0.483-0.203,0.483c-0.026,0-0.102-0.013-0.14-0.153
		c-0.165-0.598-0.216-0.839-1.284-0.839h-1.653c-0.407,0-0.444,0.05-0.444,0.814v0.623c0,2.962-0.038,3.496-0.038,4.653
		c0,0.331-0.013,0.598-0.013,0.827c0,0.343,0.026,0.572,0.178,0.724c0.483,0.47,1.068,0.229,1.068,0.559
		c0,0.203-0.089,0.216-0.305,0.216c-0.331,0-0.991-0.102-1.411-0.102c-0.33,0-0.89,0.089-1.296,0.089
		c-0.267,0-0.471-0.051-0.471-0.203c0-0.267,0.343-0.217,0.662-0.293c0.229-0.051,0.444-0.165,0.483-0.509
		c0.102-0.89,0.127-4.272,0.127-4.806c0-1.347-0.013-2.275-0.013-2.275c0-0.318-0.038-0.356-0.966-0.356
		c-1.882,0-1.907,0.14-2.047,0.318c-0.343,0.458-0.203,0.928-0.521,0.928c-0.077,0-0.14-0.038-0.14-0.216
		C38.826,35.313,38.902,34.691,38.954,34.372z"/>
</g>
<rect x="30.721" y="9.57" transform="matrix(0.5003 0.8659 -0.8659 0.5003 41.4055 -11.6751)" fill="#E0E0E0" stroke="#E0E0E0" stroke-miterlimit="10" width="0.193" height="40.928"/>
</svg>
